<svg version="1.1" id="Layer_1" xmlns="http://www.w3.org/2000/svg" xmlns:xlink="http://www.w3.org/1999/xlink" x="0px" y="0px"
	 width="100px"  viewBox="0 0 496 496" style="display: block" enable-background="0 0 0 0" xml:space="preserve">
<path fill="#ffa500" opacity="1.000000" stroke="none" 
	d="
M183.937393,304.979370 
	C214.289673,295.543243 230.828766,265.660156 222.461426,235.540649 
	C221.439331,231.861481 221.807205,229.934479 225.663803,228.976868 
	C230.297012,227.826416 234.528870,225.287674 239.280228,224.651077 
	C251.875320,252.566437 242.911194,299.048035 202.407059,319.034363 
	C161.147324,339.393402 112.257431,318.814484 97.176361,276.369720 
	C82.413742,234.821228 106.620201,191.329956 143.056229,180.049561 
	C145.606033,183.246658 148.487061,190.690933 149.827515,197.723633 
	C126.463150,208.312958 112.775452,225.806946 113.047188,252.345901 
	C113.225967,269.806396 121.954269,286.676605 134.421051,294.299530 
	C138.018494,286.817169 141.625610,279.397644 145.160767,271.944031 
	C151.940063,257.650391 158.774139,243.381256 165.367264,229.001892 
	C167.034500,225.365707 168.782593,224.123352 172.501892,226.295990 
	C175.365799,227.968964 178.420441,229.396561 181.534744,230.539566 
	C185.629547,232.042419 185.662567,234.189178 183.918427,237.794617 
	C174.274857,257.729584 164.847855,277.769348 155.360611,297.779877 
	C154.443817,299.713531 153.622849,301.692627 152.474121,304.291473 
	C163.050690,307.739868 173.254822,307.485931 183.937393,304.979370 
z"/>
<path fill="#ffa500" opacity="1.000000" stroke="none" 
	d="
M282.085022,195.060883 
	C296.398682,181.708206 313.494690,174.948029 332.253265,175.049149 
	C373.422943,175.271057 403.635284,203.695221 408.289520,240.558701 
	C412.154327,271.169830 401.012299,295.580292 376.089966,313.724792 
	C371.889038,316.783264 367.147430,318.836090 362.524689,321.130005 
	C359.481812,322.639984 357.838623,321.781433 357.023346,318.675629 
	C356.981445,318.515991 356.892365,318.369324 356.839935,318.211761 
	C355.423126,313.956390 352.540680,309.542023 352.978210,305.485931 
	C353.483337,300.802979 359.739014,300.561768 363.382874,298.325745 
	C382.213959,286.770081 392.767639,262.906372 388.498688,240.526642 
	C384.277252,218.395889 366.261841,200.506088 344.772583,196.279984 
	C306.935120,188.838806 275.562378,218.407806 277.432251,254.900085 
	C277.642639,259.006134 278.548462,263.158844 279.735352,267.108521 
	C280.833679,270.763550 279.616333,272.419159 276.266449,273.291412 
	C274.821808,273.667572 273.435638,274.265228 272.016602,274.743530 
	C261.167938,278.400024 262.035980,279.915100 259.579834,268.127380 
	C253.705093,239.932999 260.924164,215.457993 282.085022,195.060883 
z"/>
</svg>